<?xml version="1.0" standalone="no"?>
<!DOCTYPE svg PUBLIC "-//W3C//DTD SVG 20010904//EN"
 "http://www.w3.org/TR/2001/REC-SVG-20010904/DTD/svg10.dtd">
<svg version="1.0" xmlns="http://www.w3.org/2000/svg"
 width="450.000000pt" height="450.000000pt" viewBox="0 0 450.000000 450.000000"
 preserveAspectRatio="xMidYMid meet">
<metadata>
Created by potrace 1.11, written by Peter Selinger 2001-2013
</metadata>
<g transform="translate(0.000000,450.000000) scale(0.100000,-0.100000)"
fill="#000000" stroke="none">
<path d="M1030 2260 l0 -1790 55 0 c30 0 55 -4 55 -9 0 -5 13 -23 29 -40 l29
-31 260 0 261 0 28 24 28 24 5 689 5 690 28 36 c17 23 41 40 65 47 24 6 270
10 689 10 l651 0 28 30 28 29 -2 207 c-2 114 -7 215 -13 225 -5 10 -12 59 -16
108 l-6 91 -729 0 -729 0 3 334 c3 321 4 336 24 363 45 60 7 58 866 63 l788 5
25 27 25 27 0 208 c-1 167 -4 212 -15 227 -11 14 -15 46 -15 108 l0 88 -1225
0 -1225 0 0 -1790z"/>
</g>
</svg>
