<svg width="36" height="36" viewBox="0 0 36 36" fill="none" xmlns="http://www.w3.org/2000/svg">
<path d="M20.3337 29.3333V24.1733C20.3837 23.5375 20.2978 22.8984 20.0817 22.2984C19.8656 21.6984 19.5242 21.1512 19.0803 20.6933C23.267 20.2267 27.667 18.64 27.667 11.36C27.6667 9.49843 26.9506 7.70826 25.667 6.36C26.2748 4.73134 26.2318 2.93113 25.547 1.33333C25.547 1.33333 23.9737 0.866665 20.3337 3.30667C17.2777 2.47843 14.0563 2.47843 11.0003 3.30667C7.36033 0.866665 5.78699 1.33333 5.78699 1.33333C5.10216 2.93113 5.05918 4.73134 5.66699 6.36C4.37383 7.71826 3.65702 9.52462 3.66699 11.4C3.66699 18.6267 8.06699 20.2133 12.2537 20.7333C11.815 21.1866 11.4767 21.7272 11.2607 22.3199C11.0448 22.9126 10.9561 23.5441 11.0003 24.1733V29.3333M11.0003 25.3333C4.33366 27.3333 4.33366 22 1.66699 21.3333L11.0003 25.3333Z" stroke="white" stroke-width="2.66667" stroke-linecap="round" stroke-linejoin="round"/>
</svg>
