<svg width="47" height="33" viewBox="0 0 47 33" fill="none" xmlns="http://www.w3.org/2000/svg">
<path fill-rule="evenodd" clip-rule="evenodd" d="M0 0V32.7031H10.7588C13.5889 32.6882 16.1494 32.0143 18.4404 30.6816C20.7464 29.334 22.5283 27.4772 23.7861 25.1113C23.798 25.0891 23.8098 25.0669 23.8216 25.0446L26.3779 32.7031H35.0029L46.0088 0H37.2041L30.6904 23.8086L24.1992 0H15.4619L15.7332 0.812631C14.1202 0.270877 12.3872 0 10.5342 0H0ZM15.7332 0.812631L23.8216 25.0446C25.0707 22.6803 25.6953 20.0147 25.6953 17.0479V15.543C25.6803 12.5781 25.0215 9.90527 23.7188 7.52441C22.431 5.12858 20.6341 3.2793 18.3281 1.97656C17.5007 1.50376 16.6357 1.11579 15.7332 0.812631ZM7.88379 26.6387V6.08691H10.5342C12.8551 6.08691 14.6221 6.88802 15.835 8.49023C17.0479 10.0924 17.6543 12.4733 17.6543 15.6328V17.0479C17.6543 20.2223 17.0479 22.6182 15.835 24.2354C14.6221 25.8376 12.8851 26.6387 10.624 26.6387H7.88379Z" fill="#3F49FE"/>
</svg>
